<?xml version="1.0" standalone="no"?>
<!DOCTYPE svg PUBLIC "-//W3C//DTD SVG 20010904//EN"
 "http://www.w3.org/TR/2001/REC-SVG-20010904/DTD/svg10.dtd">
<svg version="1.0" xmlns="http://www.w3.org/2000/svg"
 width="500.000000pt" height="500.000000pt" viewBox="0 0 500.000000 500.000000"
 preserveAspectRatio="xMidYMid meet">

<g transform="translate(0.000000,500.000000) scale(0.100000,-0.100000)"
fill="#000000" stroke="none">
<path d="M2725 3046 c-47 -21 -68 -50 -68 -96 0 -56 31 -86 115 -111 74 -23
93 -38 83 -68 -13 -41 -91 -35 -115 9 -8 15 -21 20 -50 20 -44 0 -47 -5 -26
-55 24 -57 112 -87 192 -65 58 16 84 50 84 107 0 58 -29 85 -123 115 -50 16
-73 28 -75 41 -9 49 74 67 104 22 13 -20 25 -25 55 -25 45 0 48 10 19 58 -34
56 -126 79 -195 48z"/>
<path d="M710 2865 l0 -185 40 0 40 0 0 113 1 112 22 -26 c12 -14 50 -65 84
-112 58 -81 65 -87 98 -87 l35 0 0 185 0 185 -40 0 -39 0 -3 -111 -3 -111 -80
111 c-77 107 -81 111 -117 111 l-38 0 0 -185z"/>
<path d="M1230 2865 l0 -185 125 0 125 0 0 35 0 35 -80 0 -80 0 0 40 0 40 70
0 70 0 0 35 0 35 -70 0 -70 0 0 40 0 40 80 0 80 0 0 35 0 35 -125 0 -125 0 0
-185z"/>
<path d="M1650 3045 c0 -3 25 -43 56 -89 l56 -84 -61 -91 c-34 -49 -61 -93
-61 -96 0 -3 21 -5 48 -5 47 0 47 1 86 60 21 33 40 60 42 60 2 0 22 -27 44
-60 41 -60 41 -60 91 -60 l49 0 -64 96 -65 97 60 88 60 89 -49 0 c-48 0 -50
-1 -86 -55 -20 -30 -38 -55 -41 -55 -3 0 -21 25 -40 55 -34 53 -37 55 -80 55
-25 0 -45 -2 -45 -5z"/>
<path d="M2160 2945 c0 -142 13 -197 55 -234 60 -53 164 -50 217 6 35 37 47
95 48 226 l0 107 -45 0 -45 0 0 -125 c0 -120 -1 -127 -25 -150 -13 -14 -33
-25 -45 -25 -11 0 -32 11 -45 25 -24 23 -25 30 -25 150 l0 125 -45 0 -45 0 0
-105z"/>
<path d="M3030 2980 l0 -70 615 0 615 0 0 70 0 70 -615 0 -615 0 0 -70z"/>
<path d="M1970 2569 c-39 -16 -59 -39 -66 -76 -13 -67 31 -116 121 -137 71
-17 99 -65 51 -87 -32 -15 -78 0 -91 29 -7 17 -18 22 -47 22 -34 0 -38 -3 -38
-24 0 -37 44 -82 94 -96 64 -18 123 -5 163 35 68 68 31 148 -83 180 -65 19
-100 45 -91 69 14 35 101 32 112 -4 5 -16 15 -20 46 -20 44 0 49 12 24 59 -25
50 -129 76 -195 50z"/>
<path d="M3874 2561 c-73 -33 -110 -103 -102 -196 13 -152 189 -224 316 -129
30 24 62 71 62 94 0 5 -18 10 -41 10 -32 0 -46 -6 -61 -25 -29 -38 -87 -51
-130 -31 -77 37 -85 153 -15 196 49 31 90 26 136 -15 29 -27 47 -35 75 -35 34
0 37 2 31 23 -32 102 -166 156 -271 108z"/>
<path d="M2370 2385 l0 -185 125 0 125 0 0 35 0 34 -82 3 -83 3 -3 38 -3 37
75 0 76 0 0 35 0 34 -72 3 -73 3 -3 37 -3 37 83 3 83 3 3 33 3 32 -125 0 -126
0 0 -185z"/>
<path d="M2841 2393 c-39 -98 -71 -181 -71 -185 0 -5 20 -8 44 -8 40 0 45 3
55 30 10 30 11 30 86 30 75 0 76 0 86 -30 10 -27 15 -30 55 -30 24 0 44 2 44
4 0 3 -32 86 -71 185 l-71 181 -43 0 -43 0 -71 -177z m143 -1 l25 -62 -54 0
-54 0 25 62 c13 34 24 64 24 67 0 13 13 -12 34 -67z"/>
<path d="M3300 2385 l0 -185 45 0 45 0 0 61 c0 60 0 60 28 57 21 -2 34 -16 61
-60 l34 -58 49 0 49 0 -26 43 c-50 81 -51 83 -20 109 35 31 46 108 21 156 -26
50 -61 62 -181 62 l-105 0 0 -185z m200 95 c24 -24 25 -38 4 -68 -12 -18 -25
-22 -65 -22 l-49 0 0 55 0 55 45 0 c32 0 51 -6 65 -20z"/>
<path d="M4330 2385 l0 -185 40 0 40 0 0 75 0 75 75 0 75 0 0 -75 0 -75 45 0
45 0 0 185 0 185 -45 0 -45 0 0 -70 0 -70 -75 0 -75 0 0 70 0 70 -40 0 -40 0
0 -185z"/>
<path d="M580 2235 l0 -65 620 0 620 0 0 65 0 65 -620 0 -620 0 0 -65z"/>
</g>
</svg>
